<svg width="125" height="24" viewBox="0 0 125 24" fill="none" xmlns="http://www.w3.org/2000/svg">
<path d="M0 18.0476L2.05234 16.121C3.17823 17.5661 4.92503 18.3885 6.75927 18.3374C8.73989 18.3374 10.2647 17.5986 10.2647 16.0944C10.2647 11.9711 0.661188 13.8318 0.661188 7.70233C0.661188 4.44943 3.5044 2.8333 6.9253 2.8333C9.32739 2.76355 11.6214 3.82951 13.1157 5.70992L11.1361 7.68956C10.1281 6.38486 8.56894 5.62543 6.91842 5.63722C5.08222 5.63722 3.66356 6.29743 3.66356 7.74851C3.66356 11.1655 13.3004 9.6358 13.3004 15.9029C13.3004 19.4859 10.2588 21.1285 6.83983 21.1285C3.74707 21.1157 1.53066 20.1598 0 18.0476Z" fill="#343B4B"/>
<path d="M14.5918 15.8054V7.88782H17.4085V15.3692C17.4085 17.394 18.5304 18.569 20.4168 18.569C22.304 18.569 23.7551 17.3685 23.7551 14.874V7.86719H26.5728V20.865H23.7551V19.0043C22.9898 20.4033 21.5643 21.1686 19.6249 21.1686C16.5842 21.1686 14.5918 19.0377 14.5918 15.8054Z" fill="#343B4B"/>
<path d="M27.9453 7.86731H30.9015V10.5062C31.5018 8.72499 33.0059 7.60303 35.3618 7.60303V10.8628C35.1889 10.8461 35.0141 10.8461 34.8411 10.8628C32.7593 10.7518 30.9831 12.3493 30.872 14.4311C30.8622 14.6118 30.8661 14.7926 30.8819 14.9734V20.9113H27.9463V7.86731H27.9453Z" fill="#343B4B"/>
<path d="M35.6841 14.4393C35.6841 10.4152 38.9429 7.62402 42.0642 7.62402C44.255 7.62402 45.6472 8.4424 46.498 9.86696V7.88732H49.3422V20.8852H46.439V19.0637C45.4212 20.443 43.7756 21.2143 42.0652 21.115C38.4743 20.9981 35.6389 18.0301 35.6841 14.4393ZM46.6296 14.4393C46.6296 12.1875 44.8042 10.3621 42.5524 10.3621C40.3007 10.3621 38.4753 12.1875 38.4753 14.4393C38.4753 16.6911 40.3007 18.5165 42.5524 18.5165C44.8042 18.5165 46.6296 16.6911 46.6296 14.4393Z" fill="#343B4B"/>
<path d="M50.3247 14.4393C50.3247 10.4152 53.5845 7.62402 56.7048 7.62402C58.8957 7.62402 60.2878 8.4424 61.1386 9.86696V7.88732H64.0024V20.8852H61.0993V19.0637C60.0815 20.4431 58.4359 21.2143 56.7254 21.116C53.1267 21.0089 50.2796 18.038 50.3247 14.4393ZM61.2702 14.4393C61.2702 12.1875 59.4448 10.3621 57.1931 10.3621C54.9413 10.3621 53.1159 12.1875 53.1159 14.4393C53.1159 16.6911 54.9413 18.5165 57.1931 18.5165C59.4448 18.5165 61.2702 16.6911 61.2702 14.4393Z" fill="#343B4B"/>
<path d="M65.1309 18.1005L67.6253 16.7811C68.1804 18.0121 69.4536 18.7588 70.7986 18.6418C72.2507 18.6418 72.903 18.127 72.903 17.3224C72.903 14.7818 65.7046 16.1484 65.7046 11.4434C65.7046 8.94898 67.8689 7.58435 70.607 7.58435C72.6053 7.50576 74.4887 8.51572 75.5291 10.2232L73.0946 11.5427C72.5769 10.5985 71.5708 10.0267 70.495 10.065C69.2945 10.065 68.6343 10.5337 68.6343 11.3845C68.6343 13.7394 75.8327 12.3679 75.8327 17.2438C75.8327 19.6518 73.8531 21.1304 70.7132 21.1304C68.0605 21.1157 66.1467 20.2383 65.1309 18.1005Z" fill="#343B4B"/>
<path d="M76.815 14.4403C76.815 10.4152 80.0748 7.625 83.195 7.625C85.379 7.625 86.778 8.44338 87.622 9.86794V7.8883H90.472V20.8861H87.5689V19.0647C86.5511 20.444 84.9055 21.2153 83.194 21.117C79.6061 20.9981 76.7698 18.0311 76.815 14.4403ZM87.7605 14.4403C87.7605 12.1885 85.9351 10.3631 83.6833 10.3631C81.4315 10.3631 79.6061 12.1885 79.6061 14.4403C79.6061 16.692 81.4315 18.5174 83.6833 18.5174C85.9351 18.5165 87.7605 16.6911 87.7605 14.4403Z" fill="#343B4B"/>
<path d="M94.2695 0.158911L99.0795 12.1871C99.1031 12.2362 99.1621 12.2568 99.2112 12.2332C99.2318 12.2234 99.2475 12.2067 99.2573 12.1871L103.625 4.64577C103.652 4.59763 103.635 4.5377 103.587 4.51117C103.584 4.50921 103.582 4.50823 103.579 4.50724L94.4011 0.027263C94.3647 -0.00908768 94.3058 -0.00908768 94.2695 0.027263C94.2331 0.0626313 94.2331 0.121578 94.2695 0.158911Z" fill="#E98C24"/>
<path d="M104.166 5.1989L99.6061 12.7009C99.5796 12.749 99.5973 12.809 99.6444 12.8355C99.6651 12.8473 99.6886 12.8502 99.7112 12.8463L106.771 11.1909C106.821 11.182 106.855 11.1329 106.845 11.0828C106.843 11.074 106.84 11.0661 106.837 11.0582L104.337 5.21265C104.313 5.16255 104.254 5.14191 104.205 5.16549C104.189 5.17237 104.176 5.18416 104.166 5.1989Z" fill="#876DA2"/>
<path d="M99.6739 13.6452L104.048 16.3833C104.096 16.4099 104.156 16.3951 104.186 16.3499L106.773 11.8238C106.801 11.7766 106.785 11.7157 106.738 11.6882C106.714 11.6744 106.687 11.6715 106.661 11.6784L99.7073 13.4664C99.6542 13.4792 99.6208 13.5323 99.6336 13.5853C99.6385 13.6099 99.6532 13.6305 99.6739 13.6452Z" fill="#2DA5BD"/>
<path d="M99.0196 13.9671L96.9938 18.9482C96.9712 18.9943 96.9908 19.0493 97.037 19.071C97.0606 19.0828 97.0881 19.0837 97.1126 19.0729L103.677 16.9086C103.725 16.8899 103.748 16.8359 103.728 16.7887C103.719 16.7652 103.7 16.7465 103.677 16.7376L99.1385 13.92C99.0923 13.9033 99.0402 13.9229 99.0196 13.9671Z" fill="#7FB641"/>
<path d="M124.572 11.2428L113.178 17.3988C113.134 17.4253 113.077 17.4116 113.051 17.3684C113.038 17.3477 113.034 17.3232 113.039 17.2996L114.524 8.72279C114.532 8.67268 114.58 8.63928 114.631 8.64714C114.635 8.64812 114.639 8.64911 114.643 8.65009L124.539 11.0915C124.588 11.1151 124.609 11.175 124.584 11.2231C124.582 11.23 124.577 11.2369 124.572 11.2428Z" fill="#E98C24"/>
<path d="M113.746 8.78869L112.427 17.4716C112.42 17.5256 112.371 17.564 112.316 17.5571C112.289 17.5531 112.265 17.5394 112.248 17.5168L107.887 11.7243C107.847 11.6928 107.84 11.6349 107.871 11.5946C107.876 11.5897 107.881 11.5838 107.887 11.5789L113.548 8.68946C113.575 8.63445 113.641 8.61283 113.696 8.64034C113.751 8.66687 113.774 8.73368 113.746 8.78869Z" fill="#876DA2"/>
<path d="M111.793 18.1508L106.68 17.4915C106.627 17.4817 106.589 17.4326 106.594 17.3795L107.505 12.2462C107.512 12.1922 107.561 12.1539 107.615 12.1598C107.642 12.1637 107.667 12.1775 107.683 12.2001L111.886 18.0329C111.896 18.0859 111.862 18.139 111.809 18.1498C111.804 18.1498 111.798 18.1508 111.793 18.1508Z" fill="#2DA5BD"/>
<path d="M112.089 18.8178L110.459 23.9442C110.436 23.9934 110.376 24.014 110.327 23.9904C110.307 23.9806 110.291 23.9649 110.281 23.9442L106.619 18.0721C106.594 18.024 106.611 17.9641 106.659 17.9385C106.677 17.9287 106.698 17.9248 106.718 17.9277L111.997 18.6665C112.051 18.6616 112.099 18.7019 112.104 18.7559C112.107 18.7766 112.101 18.7991 112.089 18.8178Z" fill="#7FB641"/>
</svg>
